<svg width="177" height="142" viewBox="0 0 177 142" fill="none" xmlns="http://www.w3.org/2000/svg">
<path d="M174.8 52.4119C169.66 19.2894 153.662 -6.43474 115.689 4.58964C86.437 13.0821 67.7256 52.5912 88.4889 78.5452C93.4637 84.7637 104.553 83.8078 110.889 80.323C120.912 74.8102 123.3 65.1149 120.4 54.3674C115.132 34.8438 93.5076 15.3343 72.2222 21.4786C38.9122 31.0938 22.357 64.8597 18.9778 97.3008C18.3047 103.763 21.4114 152.325 28.4 125.923C29.6683 121.131 32.9004 106.643 31.3333 111.345C28.735 119.142 27.6 123.631 27.6 132.056C27.6 133.729 28.8227 142.471 25.1111 139.434C17.5116 133.216 9.46865 127.614 2 121.212" stroke="white" stroke-opacity="0.5" stroke-width="3" stroke-linecap="round"/>
</svg>
