<svg width="259" height="118" viewBox="0 0 259 118" fill="none" xmlns="http://www.w3.org/2000/svg">
<path d="M2 112.092C14.2318 110.284 42.4099 108.257 42.4099 90.1076C42.4099 79.887 30.4499 79.7591 25.6886 87.3209C21.603 93.8095 21.2473 109.986 30.1785 113.175C49.4856 120.07 70.0974 112.959 88.3934 106.596C115.105 97.3051 142.292 77.345 157.291 52.874C163.118 43.3677 181.282 2.7174 156.053 2.01661C116.047 0.905337 108.277 55.8432 123.926 83.5279C130.483 95.1284 146.217 102.548 158.84 104.351C172.783 106.343 194.272 95.844 197.005 80.8186C199.251 68.4618 185.686 73.3182 182.528 81.4379C177.898 93.3439 188.556 102.094 199.559 102.338C217.567 102.738 231.91 92.6361 243.84 80.0445C247.36 76.329 254.382 66.398 255.529 61.2342C256.573 56.538 256.387 59.4626 255.684 62.6275C255.025 65.5926 257 68.5895 257 71.6843C257 72.7726 255.607 66.0257 255.607 64.0209C255.607 54.4865 242.836 62.2555 237.492 63.3242" stroke="white" stroke-opacity="0.5" stroke-width="3" stroke-linecap="round"/>
</svg>
