<svg width="456" height="150" viewBox="0 0 456 150" fill="none" xmlns="http://www.w3.org/2000/svg">
<path d="M455 41.2812C361.107 30.3166 268.021 9.872 173.956 5.32213C119.886 2.7068 -41.8106 -4.94902 11.7108 9.81697C99.6828 34.0875 190.603 33.3077 279.178 49.629C313.496 55.9527 347.539 64.4292 381.684 73.3877C394.824 76.8352 405.086 82.6609 384.06 80.4511C290.217 70.5882 196.861 48.6699 103.016 38.0707C93.0016 36.9396 63.3307 36.3883 72.977 41.6023C108.336 60.7142 146.269 68.2437 182.442 78.8458C226 91.6128 270.264 99.5861 313.46 116.41C328.976 122.454 349.758 124.339 364.204 136.637C389.768 158.4 308.224 145.015 280.196 144.022C233.551 142.369 186.959 137.274 140.353 133.748" stroke="white" stroke-opacity="0.5" stroke-width="2" stroke-linecap="round"/>
</svg>
