<?xml version="1.0" encoding="utf-8"?>
<svg xmlns="http://www.w3.org/2000/svg" viewBox="0 0 48 48" width="480" height="480">
  <path fill="#3f51b5" d="M45,34c0,2.208-1.791,4-4,4H7c-2.209,0-4-1.792-4-4V12c0-2.21,1.791-4,4-4h34c2.209,0,4,1.79,4,4V34z" />
  <path fill="#43a047" d="M47.99,30.02c-5.09,0-8.99-4-8.99-4v1.3v1.34v17.02v1.12V48C48.49,43,47.99,30.02,47.99,30.02z" />
  <path fill="#66bb6a" d="M30.005,30.02c0,0-0.5,12.98,8.995,17.98v-1.2v-1.12V28.66v-1.34v-1.3 C39,26.02,35.098,30.02,30.005,30.02z" />
  <path fill="#303f9f" d="M41.15,23.93L39,21.72l-2.14,2.2c-0.1,0.09-3.17,3.1-6.86,3.1h-2.88l-0.11,2.88 c-0.01,0.3-0.12,3.86,1.05,8.1h3.14c-1.34-4.24-1.2-7.98-1.2-7.98c5.1,0,9-4,9-4s2.45,2.51,6,3.55V26.4 C42.75,25.51,41.17,23.95,41.15,23.93z" />
  <path fill="#9fa8da" d="M20 15H39V19H20zM9 30H23V32H9zM25 25H31V27H25zM17 25H23V27H17zM9 25H15V27H9zM16 20c0 .553-.447 1-1 1h-5c-.553 0-1-.447-1-1v-4c0-.553.447-1 1-1h5c.553 0 1 .447 1 1V20z" />
</svg>