<?xml version="1.0" encoding="utf-8"?>
<svg xmlns="http://www.w3.org/2000/svg" viewBox="0 0 16 16" width="96" height="96">
  <path d="M3.5 2C2.6774686 2 2 2.6774686 2 3.5L2 12.5C2 13.322531 2.6774686 14 3.5 14L12.5 14C13.322531 14 14 13.322531 14 12.5L14 3.5C14 2.6774686 13.322531 2 12.5 2L3.5 2 z M 3.5 3L12.5 3C12.781469 3 13 3.2185314 13 3.5L13 12.5C13 12.781469 12.781469 13 12.5 13L3.5 13C3.2185314 13 3 12.781469 3 12.5L3 3.5C3 3.2185314 3.2185314 3 3.5 3 z M 9.734375 5C8.891375 5 8.2060313 5.6853438 8.2070312 6.5273438C8.2070312 6.6843438 8.2617188 6.7895312 8.2617188 6.8945312C6.9977188 6.8415313 5.9479375 6.2114063 5.2109375 5.3164062C5.0529375 5.5274062 5 5.7897344 5 6.0527344C5 6.5787344 5.2049531 7.0001406 5.6269531 7.3691406C5.3469531 7.3311406 5.211 7.2632031 5 7.1582031C5 7.8952031 5.4692969 8.4738125 6.1542969 8.6328125C6.1542969 8.6328125 5.8904219 8.6855469 5.7324219 8.6855469C5.6124219 8.6855469 5.46875 8.6328125 5.46875 8.6328125C5.67975 9.2118125 6.205625 9.6855469 6.890625 9.6855469C6.364625 10.054547 5.6791406 10.316406 4.9941406 10.316406L4.625 10.316406C5.125 10.750406 5.8744062 11 6.9414062 11C9.7324063 11 11.261719 8.6855469 11.261719 6.6855469L11.261719 6.4746094C11.525719 6.2636094 11.788 6.0005938 12 5.6835938C11.684 5.8425937 11.420516 5.8942656 11.103516 5.9472656C11.419516 5.7372656 11.684062 5.4734688 11.789062 5.1054688C11.526063 5.2624688 11.210797 5.4196563 10.841797 5.4726562C10.577797 5.1576562 10.156375 5 9.734375 5 z" fill="#5B5B5B" />
</svg>